<?xml version="1.0" encoding="utf-8"?>
<!-- Generator: Adobe Illustrator 18.0.0, SVG Export Plug-In . SVG Version: 6.00 Build 0)  -->
<!DOCTYPE svg PUBLIC "-//W3C//DTD SVG 1.1//EN" "http://www.w3.org/Graphics/SVG/1.1/DTD/svg11.dtd">
<svg version="1.1" id="Capa_1" xmlns="http://www.w3.org/2000/svg" xmlns:xlink="http://www.w3.org/1999/xlink" fill="#e54f49" x="0px" y="0px"
	 width="12px" height="18.1px" viewBox="375.7 448.5 12 18.1" enable-background="new 375.7 448.5 12 18.1" xml:space="preserve">
<g>
	<path d="M381.6,448.5c-3.3,0-6,2.7-6,6c0,1.3,0.8,3.5,2.6,6.6c1.2,2.2,2.4,4.1,2.5,4.1l0.9,1.3l0.9-1.3c0.1-0.1,1.3-1.9,2.5-4.1
		c1.7-3.1,2.6-5.3,2.6-6.6C387.6,451.2,384.9,448.5,381.6,448.5z M381.6,457.5c-1.7,0-3.1-1.4-3.1-3.1c0-1.7,1.4-3.1,3.1-3.1
		s3.1,1.4,3.1,3.1C384.7,456.1,383.4,457.5,381.6,457.5z"/>
</g>
</svg>
