<?xml version="1.0" encoding="iso-8859-1"?>
<!-- Generator: Adobe Illustrator 19.0.0, SVG Export Plug-In . SVG Version: 6.00 Build 0)  -->
<svg version="1.1" id="Layer_1" xmlns="http://www.w3.org/2000/svg" xmlns:xlink="http://www.w3.org/1999/xlink" x="0px" y="0px"
	 viewBox="0 0 502.4 502.4" style="enable-background:new 0 0 502.4 502.4;" xml:space="preserve">
<g>
	<rect x="18.4" y="365.6" style="fill:#424A4C;" width="34.4" height="89.6"/>
	<rect x="441.6" y="306.4" style="fill:#424A4C;" width="57.6" height="148.8"/>
	<rect x="376.8" y="406.4" style="fill:#424A4C;" width="34.4" height="89.6"/>
	<rect x="47.2" y="396.8" style="fill:#424A4C;" width="34.4" height="89.6"/>
	<rect x="346.4" y="386.4" style="fill:#424A4C;" width="34.4" height="89.6"/>
	<rect x="290.4" y="365.6" style="fill:#424A4C;" width="34.4" height="89.6"/>
	<rect x="319.2" y="396.8" style="fill:#424A4C;" width="34.4" height="89.6"/>
	<rect x="179.2" y="396.8" style="fill:#424A4C;" width="34.4" height="89.6"/>
	<rect x="69.6" y="419.2" style="fill:#424A4C;" width="118.4" height="63.2"/>
	<rect x="342.4" y="419.2" style="fill:#424A4C;" width="118.4" height="63.2"/>
	<rect x="3.2" y="388.8" style="fill:#424A4C;" width="34.4" height="89.6"/>
</g>
<rect x="3.2" y="440.8" style="fill:#6CB7D8;" width="496" height="61.6"/>
<rect x="3.2" y="454.4" style="fill:#4EABCC;" width="496" height="48"/>
<g>
	<rect x="3.2" y="475.2" style="fill:#6CB7D8;" width="496" height="4.8"/>
	<rect x="3.2" y="486.4" style="fill:#6CB7D8;" width="496" height="4.8"/>
	<rect x="3.2" y="496.8" style="fill:#6CB7D8;" width="496" height="4.8"/>
</g>
<path style="fill:#9E735A;" d="M286.4,180c0,3.2-3.2,6.4-6.4,6.4h-60c-3.2,0-6.4-3.2-6.4-6.4v-64.8c0-3.2,3.2-6.4,6.4-6.4h60
	c3.2,0,6.4,3.2,6.4,6.4V180z"/>
<g>
	<path style="fill:#7F5B42;" d="M214.4,115.2c0-3.2,3.2-6.4,6.4-6.4h60c3.2,0,6.4,3.2,6.4,6.4V180c0,3.2-3.2,6.4-6.4,6.4"/>
	<path style="fill:#7F5B42;" d="M304,397.6c0,2.4-2.4,4.8-4.8,4.8h-96c-2.4,0-4.8-2.4-4.8-4.8V148.8c0-2.4,2.4-4.8,4.8-4.8h96
		c2.4,0,4.8,2.4,4.8,4.8V397.6z"/>
</g>
<path style="fill:#997153;" d="M304,497.6c0,2.4-2.4,4.8-4.8,4.8h-96c-2.4,0-4.8-2.4-4.8-4.8V248.8c0-2.4,2.4-4.8,4.8-4.8h96
	c2.4,0,4.8,2.4,4.8,4.8V497.6z"/>
<path style="fill:#845E44;" d="M299.2,244c2.4,0,4.8,2.4,4.8,4.8v248.8c0,2.4-2.4,4.8-4.8,4.8"/>
<path style="fill:#BC8F71;" d="M203.2,502.4c-2.4,0-4.8-2.4-4.8-4.8V248.8c0-2.4,2.4-4.8,4.8-4.8"/>
<polygon style="fill:#7F5B42;" points="203.2,244 198.4,249.6 198.4,294.4 304,400.8 304,283.2 265.6,244 "/>
<polygon style="fill:#70513C;" points="299.2,396 304,400.8 304,283.2 299.2,278.4 "/>
<path style="fill:#9E7B64;" d="M213.6,488c0,0.8-0.8,1.6-1.6,1.6l0,0c-0.8,0-1.6-0.8-1.6-1.6V290.4c0-0.8,0.8-1.6,1.6-1.6l0,0
	c0.8,0,1.6,0.8,1.6,1.6V488z"/>
<path style="fill:#70513C;" d="M213.6,310.4v-20c0-0.8-0.8-1.6-1.6-1.6s-1.6,0.8-1.6,1.6v16.8L213.6,310.4z"/>
<path id="SVGCleanerId_0" style="fill:#9E7B64;" d="M224.8,488c0,0.8-0.8,1.6-1.6,1.6l0,0c-0.8,0-1.6-0.8-1.6-1.6V290.4
	c0-0.8,0.8-1.6,1.6-1.6l0,0c0.8,0,1.6,0.8,1.6,1.6V488z"/>
<g>
	<path id="SVGCleanerId_0_1_" style="fill:#9E7B64;" d="M224.8,488c0,0.8-0.8,1.6-1.6,1.6l0,0c-0.8,0-1.6-0.8-1.6-1.6V290.4
		c0-0.8,0.8-1.6,1.6-1.6l0,0c0.8,0,1.6,0.8,1.6,1.6V488z"/>
</g>
<path style="fill:#9E7B64;" d="M236,488c0,0.8-0.8,1.6-1.6,1.6l0,0c-0.8,0-1.6-0.8-1.6-1.6V290.4c0-0.8,0.8-1.6,1.6-1.6l0,0
	c0.8,0,1.6,0.8,1.6,1.6V488z"/>
<g>
	<path style="fill:#70513C;" d="M236,332v-42.4c0-0.8-0.8-1.6-1.6-1.6s-1.6,0.8-1.6,1.6v39.2L236,332z"/>
	<path style="fill:#70513C;" d="M224.8,321.6v-31.2c0-0.8-0.8-1.6-1.6-1.6s-1.6,0.8-1.6,1.6v28L224.8,321.6z"/>
</g>
<path style="fill:#9E7B64;" d="M247.2,488c0,0.8-0.8,1.6-1.6,1.6l0,0c-0.8,0-1.6-0.8-1.6-1.6V290.4c0-0.8,0.8-1.6,1.6-1.6l0,0
	c0.8,0,1.6,0.8,1.6,1.6V488z"/>
<path style="fill:#70513C;" d="M247.2,343.2v-53.6c0-0.8-0.8-1.6-1.6-1.6s-1.6,0.8-1.6,1.6V340L247.2,343.2z"/>
<path style="fill:#9E7B64;" d="M258.4,488c0,0.8-0.8,1.6-1.6,1.6l0,0c-0.8,0-1.6-0.8-1.6-1.6V290.4c0-0.8,0.8-1.6,1.6-1.6l0,0
	c0.8,0,1.6,0.8,1.6,1.6V488z"/>
<path style="fill:#70513C;" d="M258.4,354.4v-64.8c0-0.8-0.8-1.6-1.6-1.6s-1.6,0.8-1.6,1.6v61.6L258.4,354.4z"/>
<path style="fill:#9E7B64;" d="M269.6,488c0,0.8-0.8,1.6-1.6,1.6l0,0c-0.8,0-1.6-0.8-1.6-1.6V290.4c0-0.8,0.8-1.6,1.6-1.6l0,0
	c0.8,0,1.6,0.8,1.6,1.6V488z"/>
<path style="fill:#70513C;" d="M268,288.8c-0.8,0-1.6,0.8-1.6,1.6v72.8l3.2,3.2v-75.2C269.6,289.6,268.8,288.8,268,288.8z"/>
<path style="fill:#9E7B64;" d="M280.8,488c0,0.8-0.8,1.6-1.6,1.6l0,0c-0.8,0-1.6-0.8-1.6-1.6V290.4c0-0.8,0.8-1.6,1.6-1.6l0,0
	c0.8,0,1.6,0.8,1.6,1.6V488z"/>
<path style="fill:#70513C;" d="M279.2,288.8c-0.8,0-1.6,0.8-1.6,1.6v84l3.2,3.2v-87.2C280.8,289.6,280,288.8,279.2,288.8z"/>
<path style="fill:#9E7B64;" d="M292,488c0,0.8-0.8,1.6-1.6,1.6l0,0c-0.8,0-1.6-0.8-1.6-1.6V290.4c0-0.8,0.8-1.6,1.6-1.6l0,0
	c0.8,0,1.6,0.8,1.6,1.6V488z"/>
<path style="fill:#70513C;" d="M290.4,288.8c-0.8,0-1.6,0.8-1.6,1.6v95.2l3.2,3.2v-98.4C292,289.6,291.2,288.8,290.4,288.8z"/>
<g>
	<path style="fill:#4F3E32;" d="M306.4,348c0,1.6-1.6,3.2-3.2,3.2h-104c-1.6,0-3.2-1.6-3.2-3.2l0,0c0-1.6,1.6-3.2,3.2-3.2h104
		C304.8,344.8,306.4,346.4,306.4,348L306.4,348z"/>
	<path style="fill:#4F3E32;" d="M306.4,363.2c0,1.6-1.6,3.2-3.2,3.2h-104c-1.6,0-3.2-1.6-3.2-3.2l0,0c0-1.6,1.6-3.2,3.2-3.2h104
		C304.8,360,306.4,361.6,306.4,363.2L306.4,363.2z"/>
	<path style="fill:#4F3E32;" d="M306.4,436c0,1.6-1.6,3.2-3.2,3.2h-104c-1.6,0-3.2-1.6-3.2-3.2l0,0c0-1.6,1.6-3.2,3.2-3.2h104
		C304.8,432.8,306.4,433.6,306.4,436L306.4,436z"/>
	<path style="fill:#4F3E32;" d="M306.4,450.4c0,1.6-1.6,3.2-3.2,3.2h-104c-1.6,0-3.2-1.6-3.2-3.2l0,0c0-1.6,1.6-3.2,3.2-3.2h104
		C304.8,447.2,306.4,448.8,306.4,450.4L306.4,450.4z"/>
</g>
<path style="fill:#AF8366;" d="M316,288c0,4-3.2,7.2-7.2,7.2H193.6c-4,0-7.2-3.2-7.2-7.2V172c0-4,3.2-7.2,7.2-7.2h116
	c4,0,7.2,3.2,7.2,7.2v116H316z"/>
<path style="fill:#9E735A;" d="M186.4,172c0-4,3.2-7.2,7.2-7.2h116c4,0,7.2,3.2,7.2,7.2v116c0,4-3.2,7.2-7.2,7.2"/>
<g>
	<path style="fill:#997153;" d="M316,288c0,4-3.2,7.2-7.2,7.2H193.6c-4,0-7.2-3.2-7.2-7.2"/>
	<path style="fill:#997153;" d="M296.8,229.6c0,24.8-20,61.6-45.6,61.6c-24.8,0-45.6-36.8-45.6-61.6s20-45.6,45.6-45.6
		C276,184.8,296.8,204.8,296.8,229.6z"/>
</g>
<circle style="fill:#EDEADA;" cx="251.2" cy="229.6" r="45.6"/>
<path style="fill:#DBD6C1;" d="M251.2,184.8c-14.4,0-27.2,6.4-35.2,16.8l64,64c10.4-8,16.8-20.8,16.8-35.2
	C296.8,204.8,276,184.8,251.2,184.8z"/>
<path style="fill:#F4C647;" d="M251.2,279.2c-27.2,0-48.8-21.6-48.8-48.8s21.6-48.8,48.8-48.8s48.8,21.6,48.8,48.8
	C300,256.8,278.4,279.2,251.2,279.2z M251.2,188c-23.2,0-41.6,18.4-41.6,41.6s18.4,41.6,41.6,41.6s41.6-18.4,41.6-41.6
	S274.4,188,251.2,188z"/>
<path style="fill:#4F3E32;" d="M308,145.6c0,0.8-0.8,1.6-1.6,1.6H196.8c-0.8,0-1.6-0.8-1.6-1.6l0,0c0-0.8,0.8-1.6,1.6-1.6h108.8
	C306.4,144,308,144.8,308,145.6L308,145.6z"/>
<g>
	<path style="fill:#AF8366;" d="M207.2,158.4c0,0.8-0.8,1.6-1.6,1.6l0,0c-0.8,0-1.6-0.8-1.6-1.6v-5.6c0-0.8,0.8-1.6,1.6-1.6l0,0
		c0.8,0,1.6,0.8,1.6,1.6V158.4z"/>
	<path style="fill:#AF8366;" d="M216.8,158.4c0,0.8-0.8,1.6-1.6,1.6l0,0c-0.8,0-1.6-0.8-1.6-1.6v-5.6c0-0.8,0.8-1.6,1.6-1.6l0,0
		c0.8,0,1.6,0.8,1.6,1.6V158.4z"/>
	<path style="fill:#AF8366;" d="M225.6,158.4c0,0.8-0.8,1.6-1.6,1.6l0,0c-0.8,0-1.6-0.8-1.6-1.6v-5.6c0-0.8,0.8-1.6,1.6-1.6l0,0
		c0.8,0,1.6,0.8,1.6,1.6V158.4z"/>
	<path style="fill:#AF8366;" d="M234.4,158.4c0,0.8-0.8,1.6-1.6,1.6l0,0c-0.8,0-1.6-0.8-1.6-1.6v-5.6c0-0.8,0.8-1.6,1.6-1.6l0,0
		c0.8,0,1.6,0.8,1.6,1.6V158.4z"/>
	<path style="fill:#AF8366;" d="M244,158.4c0,0.8-0.8,1.6-1.6,1.6l0,0c-0.8,0-1.6-0.8-1.6-1.6v-5.6c0-0.8,0.8-1.6,1.6-1.6l0,0
		c0.8,0,1.6,0.8,1.6,1.6V158.4z"/>
	<path style="fill:#AF8366;" d="M252.8,158.4c0,0.8-0.8,1.6-1.6,1.6l0,0c-0.8,0-1.6-0.8-1.6-1.6v-5.6c0-0.8,0.8-1.6,1.6-1.6l0,0
		c0.8,0,1.6,0.8,1.6,1.6V158.4z"/>
	<path style="fill:#AF8366;" d="M261.6,158.4c0,0.8-0.8,1.6-1.6,1.6l0,0c-0.8,0-1.6-0.8-1.6-1.6v-5.6c0-0.8,0.8-1.6,1.6-1.6l0,0
		c0.8,0,1.6,0.8,1.6,1.6V158.4z"/>
	<path style="fill:#AF8366;" d="M270.4,158.4c0,0.8-0.8,1.6-1.6,1.6l0,0c-0.8,0-1.6-0.8-1.6-1.6v-5.6c0-0.8,0.8-1.6,1.6-1.6l0,0
		c0.8,0,1.6,0.8,1.6,1.6V158.4z"/>
	<path style="fill:#AF8366;" d="M280,158.4c0,0.8-0.8,1.6-1.6,1.6l0,0c-0.8,0-1.6-0.8-1.6-1.6v-5.6c0-0.8,0.8-1.6,1.6-1.6l0,0
		c0.8,0,1.6,0.8,1.6,1.6V158.4z"/>
	<path style="fill:#AF8366;" d="M288.8,158.4c0,0.8-0.8,1.6-1.6,1.6l0,0c-0.8,0-1.6-0.8-1.6-1.6v-5.6c0-0.8,0.8-1.6,1.6-1.6l0,0
		c0.8,0,1.6,0.8,1.6,1.6V158.4z"/>
	<path style="fill:#AF8366;" d="M297.6,158.4c0,0.8-0.8,1.6-1.6,1.6l0,0c-0.8,0-1.6-0.8-1.6-1.6v-5.6c0-0.8,0.8-1.6,1.6-1.6l0,0
		c0.8,0,1.6,0.8,1.6,1.6V158.4z"/>
	<path style="fill:#AF8366;" d="M253.6,228c0,1.6-0.8,2.4-2.4,2.4l0,0c-1.6,0-2.4-0.8-2.4-2.4v-33.6c0-1.6,0.8-2.4,2.4-2.4l0,0
		c1.6,0,2.4,0.8,2.4,2.4V228z"/>
</g>
<path style="fill:#4F3E32;" d="M274.4,229.6c0,1.6-1.6,3.2-3.2,3.2h-20.8c-1.6,0-3.2-1.6-3.2-3.2l0,0c0-1.6,1.6-3.2,3.2-3.2h20.8
	C272.8,226.4,274.4,228,274.4,229.6L274.4,229.6z"/>
<circle style="fill:#997153;" cx="251.2" cy="229.6" r="4"/>
<g>
	<path style="fill:#4F3E32;" d="M197.6,145.6c0,0.8-0.8,1.6-1.6,1.6l0,0c-0.8,0-1.6-0.8-1.6-1.6v-16c0-0.8,0.8-1.6,1.6-1.6l0,0
		c0.8,0,1.6,0.8,1.6,1.6V145.6z"/>
	<path style="fill:#4F3E32;" d="M200,138.4c0,0.8-0.8,1.6-1.6,1.6H192c-0.8,0-1.6-0.8-1.6-1.6l0,0c0-0.8,0.8-1.6,1.6-1.6h6.4
		C200,137.6,200,138.4,200,138.4L200,138.4z"/>
	<path style="fill:#4F3E32;" d="M308,145.6c0,0.8-0.8,1.6-1.6,1.6l0,0c-0.8,0-1.6-0.8-1.6-1.6v-16c0-0.8,0.8-1.6,1.6-1.6l0,0
		c0.8,0,1.6,0.8,1.6,1.6V145.6z"/>
	<path style="fill:#4F3E32;" d="M311.2,138.4c0,0.8-0.8,1.6-1.6,1.6h-6.4c-0.8,0-1.6-0.8-1.6-1.6l0,0c0-0.8,0.8-1.6,1.6-1.6h6.4
		C310.4,137.6,311.2,138.4,311.2,138.4L311.2,138.4z"/>
	<path style="fill:#4F3E32;" d="M252,17.6c0,0.8-0.8,1.6-1.6,1.6l0,0c-0.8,0-1.6-0.8-1.6-1.6v-16c0-0.8,0.8-1.6,1.6-1.6l0,0
		c0.8,0,1.6,0.8,1.6,1.6V17.6z"/>
	<path style="fill:#4F3E32;" d="M255.2,10.4c0,0.8-0.8,1.6-1.6,1.6h-6.4c-0.8,0-1.6-0.8-1.6-1.6l0,0c0-0.8,0.8-1.6,1.6-1.6h6.4
		C254.4,9.6,255.2,10.4,255.2,10.4L255.2,10.4z"/>
</g>
<polygon style="fill:#604533;" points="299.2,117.6 250.4,12.8 201.6,117.6 "/>
<polygon style="fill:#422E20;" points="277.6,117.6 250.4,12.8 223.2,117.6 "/>
<path style="fill:#7F5B42;" d="M302.4,119.2c0,0.8-0.8,0.8-0.8,0.8H199.2c-0.8,0-0.8-0.8-0.8-0.8l0,0c0-0.8,0.8-0.8,0.8-0.8h101.6
	C301.6,117.6,302.4,118.4,302.4,119.2L302.4,119.2z"/>
<g>
	<rect x="452.8" y="315.2" style="fill:#EBF0F2;" width="8" height="8"/>
	<rect x="452.8" y="330.4" style="fill:#EBF0F2;" width="8" height="8"/>
	<rect x="452.8" y="346.4" style="fill:#EBF0F2;" width="8" height="8"/>
	<rect x="452.8" y="361.6" style="fill:#EBF0F2;" width="8" height="8"/>
	<rect x="452.8" y="376.8" style="fill:#EBF0F2;" width="8" height="8"/>
	<rect x="452.8" y="392" style="fill:#EBF0F2;" width="8" height="8"/>
	<rect x="452.8" y="407.2" style="fill:#EBF0F2;" width="8" height="8"/>
	<rect x="452.8" y="422.4" style="fill:#EBF0F2;" width="8" height="8"/>
	<rect x="466.4" y="315.2" style="fill:#EBF0F2;" width="8" height="8"/>
	<rect x="466.4" y="330.4" style="fill:#EBF0F2;" width="8" height="8"/>
	<rect x="466.4" y="346.4" style="fill:#EBF0F2;" width="8" height="8"/>
	<rect x="466.4" y="361.6" style="fill:#EBF0F2;" width="8" height="8"/>
	<rect x="466.4" y="376.8" style="fill:#EBF0F2;" width="8" height="8"/>
	<rect x="466.4" y="392" style="fill:#EBF0F2;" width="8" height="8"/>
	<rect x="466.4" y="407.2" style="fill:#EBF0F2;" width="8" height="8"/>
	<rect x="466.4" y="422.4" style="fill:#EBF0F2;" width="8" height="8"/>
	<rect x="480.8" y="315.2" style="fill:#EBF0F2;" width="8" height="8"/>
	<rect x="480.8" y="330.4" style="fill:#EBF0F2;" width="8" height="8"/>
	<rect x="480.8" y="346.4" style="fill:#EBF0F2;" width="8" height="8"/>
	<rect x="480.8" y="361.6" style="fill:#EBF0F2;" width="8" height="8"/>
	<rect x="480.8" y="376.8" style="fill:#EBF0F2;" width="8" height="8"/>
	<rect x="480.8" y="392" style="fill:#EBF0F2;" width="8" height="8"/>
	<rect x="480.8" y="407.2" style="fill:#EBF0F2;" width="8" height="8"/>
	<rect x="480.8" y="422.4" style="fill:#EBF0F2;" width="8" height="8"/>
</g>
<g>
</g>
<g>
</g>
<g>
</g>
<g>
</g>
<g>
</g>
<g>
</g>
<g>
</g>
<g>
</g>
<g>
</g>
<g>
</g>
<g>
</g>
<g>
</g>
<g>
</g>
<g>
</g>
<g>
</g>
</svg>
