<?xml version="1.0" encoding="utf-8"?>
<!-- Generator: Adobe Illustrator 18.0.0, SVG Export Plug-In . SVG Version: 6.00 Build 0)  -->
<!DOCTYPE svg PUBLIC "-//W3C//DTD SVG 1.1//EN" "http://www.w3.org/Graphics/SVG/1.1/DTD/svg11.dtd">
<svg version="1.1" id="Layer_1" xmlns="http://www.w3.org/2000/svg" xmlns:xlink="http://www.w3.org/1999/xlink" x="0px" y="0px"
	 width="34.5px" height="26.7px" fill="#ffffff" viewBox="0 0 34.5 26.7" enable-background="new 0 0 34.5 26.7" xml:space="preserve">
<path d="M33.5,11.7H6.5l8.8-8.8c0.2-0.2,0.3-0.4,0.3-0.6c0-0.2-0.1-0.5-0.3-0.6L14,0.3C13.8,0.1,13.6,0,13.4,0s-0.5,0.1-0.6,0.3
	L0.3,12.7C0.1,12.9,0,13.1,0,13.4s0.1,0.5,0.3,0.6l12.5,12.5c0.2,0.2,0.4,0.3,0.6,0.3s0.5-0.1,0.6-0.3l1.3-1.3
	c0.2-0.2,0.3-0.4,0.3-0.6s-0.1-0.5-0.3-0.6l-8.7-8.7h26.9c0.6,0,1-0.5,1-1v-1.5C34.5,12.1,34.1,11.7,33.5,11.7z"/>
</svg>
