<?xml version="1.0" encoding="utf-8"?>
<!-- Generator: Adobe Illustrator 18.0.0, SVG Export Plug-In . SVG Version: 6.00 Build 0)  -->
<!DOCTYPE svg PUBLIC "-//W3C//DTD SVG 1.1//EN" "http://www.w3.org/Graphics/SVG/1.1/DTD/svg11.dtd">
<svg version="1.1" id="Layer_1" xmlns="http://www.w3.org/2000/svg" xmlns:xlink="http://www.w3.org/1999/xlink" x="0px" y="0px"
	 width="100px" height="100px" viewBox="0 0 100 100" enable-background="new 0 0 100 100" xml:space="preserve">
<circle fill="#FFFFFF" cx="50" cy="50" r="50"/>
<g>
	<defs>
		<circle id="SVGID_1_" cx="50" cy="50" r="50"/>
	</defs>
	<clipPath id="SVGID_2_">
		<use xlink:href="#SVGID_1_"  overflow="visible"/>
	</clipPath>
	<g clip-path="url(#SVGID_2_)">
		<polygon fill="#3A4D94" points="0,0 0,13.3 33.5,29.9 33.5,0 		"/>
		<polygon fill="#3A4D94" points="0,86.5 0,100 33.5,100 33.5,69.8 		"/>
		<polygon fill="#E54F48" points="0,83 33.5,66.4 17.5,66.4 0,75.1 		"/>
		<polygon fill="#E54F48" points="0,24.7 0,32.6 2.1,33.6 18.2,33.6 		"/>
		<polygon fill="#E54F48" points="100,17.2 67.1,33.6 82.6,33.6 100,25 		"/>
		<polygon fill="#E54F48" points="100,40 60.1,40 60.1,0 40.2,0 40.2,40 0,40 0,60 40.2,60 40.2,100 60.1,100 60.1,60 100,60 		"/>
		<polygon fill="#E54F48" points="100,67.4 97.9,66.4 81.8,66.4 100,75.3 		"/>
		<polygon fill="#3A4D94" points="100,86.5 67.1,70.1 67.1,100 100,100 		"/>
		<polygon fill="#3A4D94" points="100,0 67.1,0 67.1,30 100,13.7 		"/>
	</g>
</g>
</svg>
