<?xml version="1.0" encoding="utf-8"?>
<!-- Generator: Adobe Illustrator 18.0.0, SVG Export Plug-In . SVG Version: 6.00 Build 0)  -->
<!DOCTYPE svg PUBLIC "-//W3C//DTD SVG 1.1//EN" "http://www.w3.org/Graphics/SVG/1.1/DTD/svg11.dtd">
<svg version="1.1" id="Layer_1" xmlns="http://www.w3.org/2000/svg" xmlns:xlink="http://www.w3.org/1999/xlink" x="0px" y="0px"
	 width="34.5px" height="26.7px" viewBox="0 0 34.5 26.7" fill="#ffffff" enable-background="new 0 0 34.5 26.7" xml:space="preserve">
<path d="M1,15.1h27.1l-8.8,8.8C19.1,24,19,24.3,19,24.5c0,0.2,0.1,0.5,0.3,0.6l1.3,1.3c0.2,0.2,0.4,0.3,0.6,0.3s0.5-0.1,0.6-0.3
	L34.3,14c0.2-0.2,0.3-0.4,0.3-0.6s-0.1-0.5-0.3-0.6L21.8,0.3C21.6,0.1,21.4,0,21.2,0c-0.2,0-0.5,0.1-0.6,0.3l-1.3,1.3
	C19.1,1.8,19,2,19,2.2s0.1,0.5,0.3,0.6l8.7,8.7H1c-0.6,0-1,0.5-1,1l0,1.5C0,14.6,0.4,15.1,1,15.1z"/>
</svg>
