<?xml version="1.0" encoding="utf-8"?>
<!-- Generator: Adobe Illustrator 18.0.0, SVG Export Plug-In . SVG Version: 6.00 Build 0)  -->
<!DOCTYPE svg PUBLIC "-//W3C//DTD SVG 1.1//EN" "http://www.w3.org/Graphics/SVG/1.1/DTD/svg11.dtd">
<svg version="1.1" id="Layer_1" xmlns="http://www.w3.org/2000/svg" xmlns:xlink="http://www.w3.org/1999/xlink" x="0px" y="0px"
	 width="100px" height="100px" viewBox="0 0 100 100" enable-background="new 0 0 100 100" xml:space="preserve">
<g>
	<defs>
		<circle id="SVGID_1_" cx="50" cy="50" r="50"/>
	</defs>
	<clipPath id="SVGID_2_">
		<use xlink:href="#SVGID_1_"  overflow="visible"/>
	</clipPath>
	<rect x="0" y="0" clip-path="url(#SVGID_2_)" fill="#E62C36" width="100" height="7.7"/>
	<rect x="0" y="7.7" clip-path="url(#SVGID_2_)" fill="#FFFFFF" width="100" height="7.7"/>
	<rect x="0" y="15.4" clip-path="url(#SVGID_2_)" fill="#E54F48" width="100" height="7.7"/>
	<rect x="0" y="23.1" clip-path="url(#SVGID_2_)" fill="#FFFFFF" width="100" height="7.7"/>
	<rect x="0" y="30.8" clip-path="url(#SVGID_2_)" fill="#E54F48" width="100" height="7.7"/>
	<rect x="0" y="38.5" clip-path="url(#SVGID_2_)" fill="#FFFFFF" width="100" height="7.7"/>
	<rect x="0" y="46.2" clip-path="url(#SVGID_2_)" fill="#E54F48" width="100" height="7.7"/>
	<rect x="0" y="53.8" clip-path="url(#SVGID_2_)" fill="#FFFFFF" width="100" height="7.7"/>
	<rect x="0" y="61.5" clip-path="url(#SVGID_2_)" fill="#E54F48" width="100" height="7.7"/>
	<rect x="0" y="69.2" clip-path="url(#SVGID_2_)" fill="#FFFFFF" width="100" height="7.7"/>
	<rect x="0" y="76.9" clip-path="url(#SVGID_2_)" fill="#E54F48" width="100" height="7.7"/>
	<rect x="0" y="92.3" clip-path="url(#SVGID_2_)" fill="#E54F48" width="100" height="7.7"/>
	<rect x="0" y="84.6" clip-path="url(#SVGID_2_)" fill="#FFFFFF" width="100" height="7.7"/>
	<g clip-path="url(#SVGID_2_)">
		<rect x="0" y="0" fill="#3A4D94" width="77.2" height="53.8"/>
		<polygon fill="#FFFFFF" points="2.9,3.8 5,3.8 5.7,1.7 6.4,3.8 8.5,3.8 6.7,5.1 7.5,7.2 5.7,5.9 4,7.2 4.6,5.1 		"/>
		<polygon fill="#FFFFFF" points="15.9,3.8 18.1,3.8 18.7,1.7 19.4,3.8 21.6,3.8 19.8,5.1 20.6,7.2 18.7,5.9 17,7.2 17.7,5.1 		"/>
		<polygon fill="#FFFFFF" points="29,3.8 31.2,3.8 31.8,1.7 32.5,3.8 34.6,3.8 32.9,5.1 33.6,7.2 31.8,5.9 30.1,7.2 30.7,5.1 		"/>
		<polygon fill="#FFFFFF" points="42.1,3.8 44.2,3.8 44.9,1.7 45.6,3.8 47.7,3.8 46,5.1 46.7,7.2 44.9,5.9 43.2,7.2 43.8,5.1 		"/>
		<polygon fill="#FFFFFF" points="55.2,3.8 57.3,3.8 58,1.7 58.7,3.8 60.8,3.8 59.1,5.1 59.8,7.2 58,5.9 56.3,7.2 56.9,5.1 		"/>
		<polygon fill="#FFFFFF" points="68.2,3.8 70.4,3.8 71.1,1.7 71.8,3.8 73.9,3.8 72.1,5.1 72.9,7.2 71.1,5.9 69.4,7.2 70,5.1 		"/>
		<polygon fill="#FFFFFF" points="9.4,9.2 11.5,9.2 12.2,7.1 12.9,9.2 15,9.2 13.3,10.5 14,12.6 12.2,11.3 10.5,12.6 11.1,10.4 		
			"/>
		<polygon fill="#FFFFFF" points="22.5,9.2 24.6,9.2 25.3,7.1 26,9.2 28.1,9.2 26.4,10.5 27.1,12.6 25.3,11.3 23.6,12.6 24.2,10.4 
					"/>
		<polygon fill="#FFFFFF" points="35.5,9.2 37.7,9.2 38.4,7.1 39.1,9.2 41.2,9.2 39.4,10.5 40.2,12.6 38.4,11.3 36.7,12.6 
			37.3,10.4 		"/>
		<polygon fill="#FFFFFF" points="48.6,9.2 50.8,9.2 51.4,7.1 52.1,9.2 54.3,9.2 52.5,10.5 53.3,12.6 51.4,11.3 49.7,12.6 
			50.4,10.4 		"/>
		<polygon fill="#FFFFFF" points="61.7,9.2 63.9,9.2 64.5,7.1 65.2,9.2 67.3,9.2 65.6,10.5 66.3,12.6 64.5,11.3 62.8,12.6 
			63.4,10.4 		"/>
		<polygon fill="#FFFFFF" points="2.9,14.7 5,14.7 5.7,12.6 6.4,14.7 8.5,14.7 6.7,15.9 7.5,18 5.7,16.7 4,18 4.6,15.9 		"/>
		<polygon fill="#FFFFFF" points="15.9,14.7 18.1,14.7 18.7,12.6 19.4,14.7 21.6,14.7 19.8,15.9 20.6,18 18.7,16.7 17,18 17.7,15.9 
					"/>
		<polygon fill="#FFFFFF" points="29,14.7 31.2,14.7 31.8,12.6 32.5,14.7 34.6,14.7 32.9,15.9 33.6,18 31.8,16.7 30.1,18 30.7,15.9 
					"/>
		<polygon fill="#FFFFFF" points="42.1,14.7 44.2,14.7 44.9,12.6 45.6,14.7 47.7,14.7 46,15.9 46.7,18 44.9,16.7 43.2,18 43.8,15.9 
					"/>
		<polygon fill="#FFFFFF" points="55.2,14.7 57.3,14.7 58,12.6 58.7,14.7 60.8,14.7 59.1,15.9 59.8,18 58,16.7 56.3,18 56.9,15.9 		
			"/>
		<polygon fill="#FFFFFF" points="68.2,14.7 70.4,14.7 71.1,12.6 71.8,14.7 73.9,14.7 72.1,15.9 72.9,18 71.1,16.7 69.4,18 70,15.9 
					"/>
		<polygon fill="#FFFFFF" points="9.4,20 11.5,20 12.2,18 12.9,20 15,20 13.3,21.3 14,23.4 12.2,22.1 10.5,23.4 11.1,21.3 		"/>
		<polygon fill="#FFFFFF" points="22.5,20 24.6,20 25.3,18 26,20 28.1,20 26.4,21.3 27.1,23.4 25.3,22.1 23.6,23.4 24.2,21.3 		"/>
		<polygon fill="#FFFFFF" points="35.5,20 37.7,20 38.4,18 39.1,20 41.2,20 39.4,21.3 40.2,23.4 38.4,22.1 36.7,23.4 37.3,21.3 		
			"/>
		<polygon fill="#FFFFFF" points="48.6,20 50.8,20 51.4,18 52.1,20 54.3,20 52.5,21.3 53.3,23.4 51.4,22.1 49.7,23.4 50.4,21.3 		
			"/>
		<polygon fill="#FFFFFF" points="61.7,20 63.9,20 64.5,18 65.2,20 67.3,20 65.6,21.3 66.3,23.4 64.5,22.1 62.8,23.4 63.4,21.3 		
			"/>
		<polygon fill="#FFFFFF" points="2.9,25.7 5,25.7 5.7,23.6 6.4,25.7 8.5,25.7 6.7,27 7.5,29.1 5.7,27.8 4,29.1 4.6,26.9 		"/>
		<polygon fill="#FFFFFF" points="15.9,25.7 18.1,25.7 18.7,23.6 19.4,25.7 21.6,25.7 19.8,27 20.6,29.1 18.7,27.8 17,29.1 
			17.7,26.9 		"/>
		<polygon fill="#FFFFFF" points="29,25.7 31.2,25.7 31.8,23.6 32.5,25.7 34.6,25.7 32.9,27 33.6,29.1 31.8,27.8 30.1,29.1 
			30.7,26.9 		"/>
		<polygon fill="#FFFFFF" points="42.1,25.7 44.2,25.7 44.9,23.6 45.6,25.7 47.7,25.7 46,27 46.7,29.1 44.9,27.8 43.2,29.1 
			43.8,26.9 		"/>
		<polygon fill="#FFFFFF" points="55.2,25.7 57.3,25.7 58,23.6 58.7,25.7 60.8,25.7 59.1,27 59.8,29.1 58,27.8 56.3,29.1 56.9,26.9 
					"/>
		<polygon fill="#FFFFFF" points="68.2,25.7 70.4,25.7 71.1,23.6 71.8,25.7 73.9,25.7 72.1,27 72.9,29.1 71.1,27.8 69.4,29.1 
			70,26.9 		"/>
		<polygon fill="#FFFFFF" points="9.4,31.1 11.5,31.1 12.2,29 12.9,31.1 15,31.1 13.3,32.4 14,34.5 12.2,33.1 10.5,34.5 11.1,32.3 
					"/>
		<polygon fill="#FFFFFF" points="22.5,31.1 24.6,31.1 25.3,29 26,31.1 28.1,31.1 26.4,32.4 27.1,34.5 25.3,33.1 23.6,34.5 
			24.2,32.3 		"/>
		<polygon fill="#FFFFFF" points="35.5,31.1 37.7,31.1 38.4,29 39.1,31.1 41.2,31.1 39.4,32.4 40.2,34.5 38.4,33.1 36.7,34.5 
			37.3,32.3 		"/>
		<polygon fill="#FFFFFF" points="48.6,31.1 50.8,31.1 51.4,29 52.1,31.1 54.3,31.1 52.5,32.4 53.3,34.5 51.4,33.1 49.7,34.5 
			50.4,32.3 		"/>
		<polygon fill="#FFFFFF" points="61.7,31.1 63.9,31.1 64.5,29 65.2,31.1 67.3,31.1 65.6,32.4 66.3,34.5 64.5,33.1 62.8,34.5 
			63.4,32.3 		"/>
		<polygon fill="#FFFFFF" points="2.9,36.5 5,36.5 5.7,34.5 6.4,36.5 8.5,36.5 6.7,37.8 7.5,39.9 5.7,38.6 4,39.9 4.6,37.8 		"/>
		<polygon fill="#FFFFFF" points="15.9,36.5 18.1,36.5 18.7,34.5 19.4,36.5 21.6,36.5 19.8,37.8 20.6,39.9 18.7,38.6 17,39.9 
			17.7,37.8 		"/>
		<polygon fill="#FFFFFF" points="29,36.5 31.2,36.5 31.8,34.5 32.5,36.5 34.6,36.5 32.9,37.8 33.6,39.9 31.8,38.6 30.1,39.9 
			30.7,37.8 		"/>
		<polygon fill="#FFFFFF" points="42.1,36.5 44.2,36.5 44.9,34.5 45.6,36.5 47.7,36.5 46,37.8 46.7,39.9 44.9,38.6 43.2,39.9 
			43.8,37.8 		"/>
		<polygon fill="#FFFFFF" points="55.2,36.5 57.3,36.5 58,34.5 58.7,36.5 60.8,36.5 59.1,37.8 59.8,39.9 58,38.6 56.3,39.9 
			56.9,37.8 		"/>
		<polygon fill="#FFFFFF" points="68.2,36.5 70.4,36.5 71.1,34.5 71.8,36.5 73.9,36.5 72.1,37.8 72.9,39.9 71.1,38.6 69.4,39.9 
			70,37.8 		"/>
		<polygon fill="#FFFFFF" points="9.4,41.9 11.5,41.9 12.2,39.8 12.9,41.9 15,41.9 13.3,43.2 14,45.3 12.2,44 10.5,45.3 11.1,43.2 
					"/>
		<polygon fill="#FFFFFF" points="22.5,41.9 24.6,41.9 25.3,39.8 26,41.9 28.1,41.9 26.4,43.2 27.1,45.3 25.3,44 23.6,45.3 
			24.2,43.2 		"/>
		<polygon fill="#FFFFFF" points="35.5,41.9 37.7,41.9 38.4,39.8 39.1,41.9 41.2,41.9 39.4,43.2 40.2,45.3 38.4,44 36.7,45.3 
			37.3,43.2 		"/>
		<polygon fill="#FFFFFF" points="48.6,41.9 50.8,41.9 51.4,39.8 52.1,41.9 54.3,41.9 52.5,43.2 53.3,45.3 51.4,44 49.7,45.3 
			50.4,43.2 		"/>
		<polygon fill="#FFFFFF" points="61.7,41.9 63.9,41.9 64.5,39.8 65.2,41.9 67.3,41.9 65.6,43.2 66.3,45.3 64.5,44 62.8,45.3 
			63.4,43.2 		"/>
		<polygon fill="#FFFFFF" points="2.9,47 5,47 5.7,44.9 6.4,47 8.5,47 6.7,48.3 7.5,50.4 5.7,49 4,50.4 4.6,48.2 		"/>
		<polygon fill="#FFFFFF" points="15.9,47 18.1,47 18.7,44.9 19.4,47 21.6,47 19.8,48.3 20.6,50.4 18.7,49 17,50.4 17.7,48.2 		"/>
		<polygon fill="#FFFFFF" points="29,47 31.2,47 31.8,44.9 32.5,47 34.6,47 32.9,48.3 33.6,50.4 31.8,49 30.1,50.4 30.7,48.2 		"/>
		<polygon fill="#FFFFFF" points="42.1,47 44.2,47 44.9,44.9 45.6,47 47.7,47 46,48.3 46.7,50.4 44.9,49 43.2,50.4 43.8,48.2 		"/>
		<polygon fill="#FFFFFF" points="55.2,47 57.3,47 58,44.9 58.7,47 60.8,47 59.1,48.3 59.8,50.4 58,49 56.3,50.4 56.9,48.2 		"/>
		<polygon fill="#FFFFFF" points="68.2,47 70.4,47 71.1,44.9 71.8,47 73.9,47 72.1,48.3 72.9,50.4 71.1,49 69.4,50.4 70,48.2 		"/>
	</g>
</g>
</svg>
